<svg version="1.1" xmlns="http://www.w3.org/2000/svg" xmlns:xlink="http://www.w3.org/1999/xlink" width="723.00556" height="861.85947" viewBox="0,0,723.00556,861.85947"><g transform="translate(286.37162,317.38468)"><g fill="none" fill-rule="nonzero" stroke="#000000" stroke-width="1" stroke-linecap="butt" stroke-linejoin="miter" stroke-miterlimit="10" stroke-dasharray="" stroke-dashoffset="0" font-family="none" font-weight="none" font-size="none" text-anchor="none" style="mix-blend-mode: normal"><g><path d="M0,0c-13.06158,-1.7054 -26.12316,-3.4108 -43.0411,-0.8569c-16.91794,2.5539 -37.69224,9.36711 -49.03437,13.63295c-11.34213,4.26584 -13.25207,5.98431 -21.31294,12.66555c-8.06086,6.68123 -22.27264,18.32522 -34.56478,30.02041c-12.29214,11.69519 -22.66464,23.44158 -33.03178,37.34964c-10.36714,13.90806 -20.72891,29.9778 -34.48651,53.44704c-13.75761,23.46924 -30.91105,54.338 -43.71215,92.72524c-12.8011,38.38724 -21.24986,84.29297 -24.81301,105.85747c-3.56315,21.5645 -2.2407,18.78779 -1.5766,22.6437c0.6641,3.85591 0.66983,14.34444 3.26987,24.04227c2.60003,9.69783 7.79436,18.60495 11.97387,25.14581c4.17951,6.54085 7.34421,10.71544 16.06954,20.12803c8.72533,9.41259 23.01131,24.06318 42.79017,35.61151c19.77887,11.54833 45.05062,19.99439 62.57454,26.76094c17.52392,6.76655 27.29999,11.85361 58.21825,19.98882c30.91826,8.13521 82.97872,19.31859 122.19766,23.32851c39.21894,4.00992 65.59637,0.8464 82.31565,-0.0356c16.71928,-0.882 23.7804,0.51752 43.70515,-6.91462c19.92475,-7.43214 52.71312,-23.69595 72.33753,-35.17652c19.62441,-11.48057 26.08486,-18.17791 35.19117,-27.50947c9.10631,-9.33156 20.85849,-21.29734 33.12691,-40.64867c12.26843,-19.35133 25.05311,-46.08822 33.40547,-72.53706c8.35236,-26.44884 12.27241,-52.60962 13.91055,-80.82801c1.63813,-28.21839 0.99436,-58.49437 0.01855,-76.83747c-0.97581,-18.34309 -2.28365,-24.7533 -6.10287,-40.97894c-3.81922,-16.22564 -10.1498,-42.26672 -22.09188,-69.55425c-11.94207,-27.28753 -29.49563,-55.8215 -45.54936,-78.33186c-16.05373,-22.51037 -30.60765,-38.99713 -39.94402,-48.13331c-9.33637,-9.13619 -13.45518,-10.9218 -20.39901,-14.5384c-6.94383,-3.6166 -16.71267,-9.0642 -24.24296,-12.26908c-7.5303,-3.20488 -12.82206,-4.16703 -27.02593,-5.45314c-14.20387,-1.28611 -37.31986,-2.89618 -59.36113,-0.0226c-22.04127,2.87357 -43.00781,10.23079 -63.97436,17.588c-20.96655,7.35721 -48.15169,13.59137 -75.33683,19.82552"></path><path d="M-152.67831,109.51992c2.55196,-14.00573 5.10392,-28.01145 5.96643,-42.17663c0.8625,-14.16518 0.03555,-28.48981 0.01844,-58.84912c-0.0171,-30.35932 0.77564,-76.75332 0.01947,-97.33534c-0.75617,-20.58202 -3.06126,-15.35206 4.66633,-54.94078c7.72759,-39.58872 25.48787,-123.99612 36.53442,-149.50811c11.04655,-25.51199 15.37938,7.87145 22.52791,30.9659c7.14853,23.09445 17.11276,35.89992 31.93011,60.14923c14.81735,24.24931 34.48782,59.94247 46.65231,84.28465c12.16449,24.34218 16.823,37.33337 21.4815,50.32456c4.65851,12.99119 10.32988,19.56029 16.00124,26.12938"></path><path d="M203.62439,-40.77858c1.34893,-9.4511 2.69786,-18.90221 2.17149,-22.36191c-0.52638,-3.4597 -2.92806,-0.92799 16.09259,-42.24507c19.02065,-41.31707 59.46365,-126.48293 80.41973,-169.78214c20.95608,-43.29921 22.42524,-44.73176 25.49613,-40.77427c3.0709,3.95749 7.74353,13.30503 9.13561,23.12106c1.39208,9.81602 -0.49639,20.10053 -2.24353,36.88496c-1.74715,16.78443 -3.35297,40.06879 -15.86094,83.92967c-12.50797,43.86088 -35.91809,108.29828 -59.32821,172.73569c-23.41012,64.4374 -16.89102,55.90451 -10.37193,47.37162"></path><path d="M47.72231,151.40697c-2.03933,25.60667 -4.07865,51.21334 -2.64746,57.2118c1.4312,5.99847 6.33292,-7.61126 10.15388,-21.76586c3.82096,-14.15459 6.56117,-28.85405 0.01895,-24.79486c-6.54222,4.05919 -22.36688,26.87702 -24.5672,38.56537c-2.20032,11.68836 9.2237,12.24724 20.64771,12.80613c11.42402,0.55889 16.62448,-10.36237 21.82495,-21.28363"></path><path d="M-19.00686,206.46843c-7.42554,9.88117 -14.85109,19.76234 -15.76507,24.24821c-0.91399,4.48586 4.68358,3.57642 -19.00096,19.55853c-23.68453,15.98211 -76.65116,48.85579 -129.61779,81.72946c-52.96663,32.87367 -47.29374,28.5944 -41.62085,24.31513"></path><path d="M-12.16108,233.07671c-14.48241,15.91207 -28.96482,31.82415 -54.65955,69.47087c-25.69473,37.64673 -62.60179,97.02811 -87.52352,133.79098c-24.92173,36.76287 -37.85815,50.90724 -50.79456,65.0516c-12.93641,14.14436 -19.35591,23.80642 -25.7754,33.46847"></path><path d="M86.79389,209.0066c28.9449,33.58105 57.88981,67.16211 105.85843,102.59896c47.96862,35.43685 114.96096,72.72951 181.9533,110.02216c66.99234,37.29265 63.84299,30.44802 60.69365,23.60338"></path><path d="M95.20429,254.3646c19.02037,18.56797 38.04074,37.13595 45.39428,43.79292c7.35354,6.65698 3.04026,1.40295 24.54294,14.03978c21.50267,12.63683 68.8213,43.16452 116.13992,73.69221c47.31863,30.52769 45.67698,21.99582 44.03534,13.46396"></path><path d="M-53.99442,102.77777l0.81788,29.63471"></path><path d="M188.71985,57.66957l-1.62059,8.44345"></path><path d=""></path></g></g></g></svg>